---
title: "DVD player does not recognize .AVI video stream ( audio works fine )."
date: 2009-06-16
forum: Multimedia Software
---

### Post by ActiveFrost on 2009-06-16
```
Duration: 01:13:49.24, start: 0.000000, bitrate: 2640 kb/s
    Stream #0.0: Video: mpeg4, yuv420p, 768x432 [PAR 1:1 DAR 16:9], 25 tbr, 25 tbn, 30k tbc
    Stream #0.1: Audio: mp3, 48000 Hz, 2 channels, s16, 320 kb/s
```

What could be the reason ? Why my DVD player can't recognize video stream ( audio works fine but I video is not working ) ?
Any workarounds ( converting to other format ? ) ?

---

### Post by ohzopants on 2009-06-16
Are you talking about a DVD player **application** or an actual standalone DVD player?

If it's a standalone player, does it support whatever codec the video file is in? (XviD, DivX, x/h264, etc...)

---

### Post by ohzopants on 2009-06-16
Two more things I forgot:
1) if you do end up wanting/needing to transcode the video handbrake (in the repos and make sure to get the gui too) is a fantastic transcoding application
2) devede (also available in the repos) can make a standard DVD from pretty much any video file

---

